<?xml version="1.0" standalone="no"?>
<!DOCTYPE svg PUBLIC "-//W3C//DTD SVG 20010904//EN"
 "http://www.w3.org/TR/2001/REC-SVG-20010904/DTD/svg10.dtd">
<svg version="1.0" xmlns="http://www.w3.org/2000/svg"
 width="700.000000pt" height="700.000000pt" viewBox="0 0 700.000000 700.000000"
 preserveAspectRatio="xMidYMid meet">
<metadata>
Created by potrace 1.14, written by Peter Selinger 2001-2017
</metadata>
<g transform="translate(0.000000,700.000000) scale(0.100000,-0.100000)"
fill="#000000" stroke="none">
<path d="M3747 5142 c-2 -4 -4 -734 -3 -1622 l1 -1614 315 -1 c173 0 320 1
326 3 8 2 11 190 11 681 0 373 3 682 6 687 3 5 303 9 676 8 l671 0 0 273 c0
236 -2 273 -15 273 -8 1 -312 1 -675 1 l-660 1 -1 21 c-1 26 -1 729 0 739 1 4
279 7 619 7 339 0 692 1 783 1 l165 0 0 275 -1 274 -1107 0 c-609 0 -1109 -3
-1111 -7z"/>
<path d="M2029 4306 c-2 -2 -31 -6 -64 -9 -386 -36 -723 -319 -855 -718 -17
-51 -32 -102 -34 -113 -2 -12 -7 -39 -11 -61 -4 -22 -9 -49 -12 -60 -16 -83
-22 -348 -9 -475 43 -440 273 -784 618 -925 244 -100 600 -120 863 -48 229 63
428 209 550 402 57 91 123 236 113 247 -6 6 -37 12 -98 20 -25 3 -61 9 -80 14
-19 4 -56 11 -81 14 -25 4 -59 9 -74 12 -133 24 -253 44 -265 44 -9 0 -24 -24
-39 -63 -68 -182 -194 -271 -381 -268 -136 3 -228 40 -328 134 -98 93 -151
217 -168 395 l-5 52 782 0 781 0 -5 148 c-18 445 -121 742 -330 954 -162 165
-353 259 -597 294 -42 6 -266 14 -271 10z m253 -496 c184 -57 303 -226 324
-461 l6 -68 -464 2 -463 2 0 40 c-1 54 19 160 41 215 53 136 178 248 311 279
69 16 177 12 245 -9z"/>
</g>
</svg>
